<?xml version="1.0" encoding="utf-8"?>
<!-- Generator: Adobe Illustrator 16.0.3, SVG Export Plug-In . SVG Version: 6.00 Build 0)  -->
<!DOCTYPE svg PUBLIC "-//W3C//DTD SVG 1.1//EN" "http://www.w3.org/Graphics/SVG/1.1/DTD/svg11.dtd">
<svg version="1.1" id="Capa_1" xmlns="http://www.w3.org/2000/svg" xmlns:xlink="http://www.w3.org/1999/xlink" x="0px" y="0px"
	 width="160px" height="190px" viewBox="0 0 160 190" enable-background="new 0 0 160 190" xml:space="preserve">
<g>
	<path d="M7.886,164.086h4.058c1.32,0,2.311,0.354,2.971,1.063c0.66,0.708,0.991,1.747,0.991,3.115v8.551
		c0,1.369-0.331,2.407-0.991,3.116c-0.66,0.708-1.65,1.063-2.971,1.063H7.886V164.086z M11.896,178.579
		c0.435,0,0.769-0.129,1.002-0.387c0.233-0.258,0.35-0.677,0.35-1.256v-8.792c0-0.58-0.117-0.999-0.35-1.257
		c-0.234-0.257-0.568-0.386-1.002-0.386h-1.353v12.077H11.896z"/>
	<path d="M17.692,164.086h7.247v2.416h-4.589v4.468h3.647v2.416h-3.647v5.193h4.589v2.415h-7.247V164.086z"/>
	<path d="M27.04,180.137c-0.66-0.732-0.99-1.783-0.99-3.152v-0.966h2.512v1.159c0,1.096,0.459,1.643,1.377,1.643
		c0.451,0,0.793-0.133,1.026-0.398s0.35-0.696,0.35-1.292c0-0.709-0.161-1.333-0.483-1.872c-0.322-0.54-0.918-1.188-1.788-1.944
		c-1.095-0.967-1.86-1.84-2.294-2.621c-0.435-0.781-0.652-1.662-0.652-2.645c0-1.337,0.338-2.371,1.015-3.104
		c0.676-0.732,1.658-1.099,2.947-1.099c1.272,0,2.234,0.366,2.886,1.099c0.652,0.733,0.979,1.784,0.979,3.152v0.7h-2.512v-0.869
		c0-0.58-0.113-1.003-0.338-1.269c-0.226-0.266-0.556-0.398-0.991-0.398c-0.886,0-1.328,0.54-1.328,1.618
		c0,0.612,0.165,1.184,0.495,1.716c0.33,0.531,0.93,1.175,1.799,1.932c1.111,0.967,1.876,1.845,2.295,2.633
		c0.418,0.789,0.628,1.715,0.628,2.778c0,1.385-0.342,2.447-1.027,3.188c-0.685,0.74-1.679,1.11-2.983,1.11
		C28.674,181.235,27.7,180.869,27.04,180.137z"/>
	<path d="M36.327,180.148c-0.668-0.725-1.002-1.747-1.002-3.067v-9.082c0-1.32,0.334-2.343,1.002-3.067
		c0.668-0.725,1.638-1.087,2.911-1.087c1.271,0,2.242,0.362,2.911,1.087c0.668,0.725,1.002,1.747,1.002,3.067v1.787h-2.512v-1.956
		c0-1.047-0.443-1.57-1.329-1.57c-0.886,0-1.329,0.523-1.329,1.57v9.444c0,1.03,0.443,1.546,1.329,1.546
		c0.885,0,1.329-0.516,1.329-1.546v-2.585h2.512v2.392c0,1.32-0.334,2.343-1.002,3.067c-0.668,0.725-1.639,1.087-2.911,1.087
		C37.965,181.235,36.995,180.873,36.327,180.148z"/>
	<path d="M46.797,164.086h3.599l2.753,16.908h-2.657l-0.483-3.357v0.048h-3.019l-0.483,3.31h-2.463L46.797,164.086z M49.696,175.391
		l-1.184-8.357h-0.048l-1.159,8.357H49.696z"/>
	<path d="M54.43,164.086h3.937c1.369,0,2.367,0.318,2.995,0.954c0.628,0.637,0.942,1.615,0.942,2.935v1.039
		c0,1.755-0.58,2.866-1.739,3.333v0.049c0.644,0.193,1.099,0.588,1.365,1.184s0.398,1.393,0.398,2.391v2.972
		c0,0.482,0.016,0.873,0.048,1.171c0.032,0.299,0.112,0.592,0.242,0.882h-2.706c-0.096-0.273-0.161-0.531-0.193-0.772
		c-0.033-0.242-0.048-0.677-0.048-1.305v-3.092c0-0.773-0.125-1.313-0.375-1.618c-0.25-0.306-0.681-0.459-1.292-0.459h-0.917v7.246
		H54.43V164.086z M58.053,171.332c0.532,0,0.93-0.136,1.196-0.41c0.266-0.273,0.398-0.732,0.398-1.377v-1.305
		c0-0.611-0.108-1.054-0.326-1.328c-0.217-0.273-0.56-0.41-1.026-0.41h-1.208v4.83H58.053z"/>
	<path d="M64.985,180.137c-0.676-0.732-1.015-1.783-1.015-3.152v-8.889c0-1.368,0.338-2.419,1.015-3.152
		c0.676-0.732,1.658-1.099,2.947-1.099c1.288,0,2.271,0.366,2.947,1.099c0.676,0.733,1.015,1.784,1.015,3.152v1.449h-2.512v-1.618
		c0-1.111-0.459-1.667-1.376-1.667c-0.918,0-1.377,0.556-1.377,1.667v9.251c0,1.096,0.459,1.643,1.377,1.643
		c0.917,0,1.376-0.547,1.376-1.643v-3.31h-1.328v-2.415h3.84v5.531c0,1.369-0.338,2.42-1.015,3.152s-1.659,1.099-2.947,1.099
		C66.644,181.235,65.662,180.869,64.985,180.137z"/>
	<path d="M75.661,164.086h3.599l2.753,16.908h-2.657l-0.483-3.357v0.048h-3.019l-0.483,3.31h-2.463L75.661,164.086z M78.56,175.391
		l-1.184-8.357h-0.048l-1.159,8.357H78.56z"/>
	<path d="M87.979,180.137c-0.677-0.732-1.015-1.783-1.015-3.152v-8.889c0-1.368,0.338-2.419,1.015-3.152
		c0.677-0.732,1.658-1.099,2.947-1.099c1.288,0,2.271,0.366,2.946,1.099c0.677,0.733,1.015,1.784,1.015,3.152v1.449h-2.512v-1.618
		c0-1.111-0.459-1.667-1.377-1.667s-1.377,0.556-1.377,1.667v9.251c0,1.096,0.459,1.643,1.377,1.643s1.377-0.547,1.377-1.643v-3.31
		h-1.329v-2.415h3.841v5.531c0,1.369-0.338,2.42-1.015,3.152c-0.676,0.732-1.658,1.099-2.946,1.099
		C89.638,181.235,88.656,180.869,87.979,180.137z"/>
	<path d="M96.603,164.086h3.938c1.368,0,2.367,0.318,2.995,0.954c0.628,0.637,0.941,1.615,0.941,2.935v1.039
		c0,1.755-0.579,2.866-1.738,3.333v0.049c0.644,0.193,1.099,0.588,1.364,1.184s0.398,1.393,0.398,2.391v2.972
		c0,0.482,0.016,0.873,0.049,1.171c0.031,0.299,0.112,0.592,0.241,0.882h-2.705c-0.097-0.273-0.161-0.531-0.193-0.772
		c-0.032-0.242-0.049-0.677-0.049-1.305v-3.092c0-0.773-0.125-1.313-0.374-1.618c-0.25-0.306-0.681-0.459-1.292-0.459H99.26v7.246
		h-2.657V164.086z M100.226,171.332c0.531,0,0.93-0.136,1.196-0.41c0.266-0.273,0.398-0.732,0.398-1.377v-1.305
		c0-0.611-0.109-1.054-0.326-1.328c-0.218-0.273-0.56-0.41-1.026-0.41H99.26v4.83H100.226z"/>
	<path d="M108.389,164.086h3.6l2.754,16.908h-2.657l-0.483-3.357v0.048h-3.02l-0.482,3.31h-2.464L108.389,164.086z M111.288,175.391
		l-1.184-8.357h-0.049l-1.159,8.357H111.288z"/>
	<path d="M116.988,166.502h-2.777v-2.416h8.212v2.416h-2.777v14.492h-2.657V166.502z"/>
	<path d="M124.621,180.137c-0.677-0.732-1.015-1.783-1.015-3.152v-12.898h2.657v13.092c0,0.58,0.116,0.999,0.351,1.256
		c0.232,0.258,0.567,0.387,1.002,0.387s0.769-0.129,1.002-0.387c0.233-0.257,0.351-0.676,0.351-1.256v-13.092h2.561v12.898
		c0,1.369-0.338,2.42-1.015,3.152c-0.676,0.732-1.658,1.099-2.946,1.099C126.279,181.235,125.298,180.869,124.621,180.137z"/>
	<path d="M133.413,164.086h2.657v16.908h-2.657V164.086z"/>
	<path d="M140.127,166.502h-2.777v-2.416h8.212v2.416h-2.777v14.492h-2.657V166.502z"/>
	<path d="M147.784,164.086h3.6l2.754,16.908h-2.657l-0.483-3.357v0.048h-3.02l-0.482,3.31h-2.464L147.784,164.086z M150.684,175.391
		l-1.184-8.357h-0.049l-1.159,8.357H150.684z"/>
</g>
<g>
	<path fill-rule="evenodd" clip-rule="evenodd" fill="#490D3D" d="M118.118,4.44c1.13,0.704,2.385,1.271,3.36,2.148
		c1.544,1.389,1.975,3.314,1.97,5.351c-0.013,5.077-0.046,10.156,0.037,15.233c0.016,0.791,0.413,1.759,0.962,2.331
		c3.239,3.366,6.562,6.66,9.896,9.935c0.884,0.866,1.309,1.778,1.308,3.046c-0.028,30.818-0.02,61.632-0.024,92.45
		c0,4.552-2.778,7.349-7.31,7.363c-4.572,0.017-9.15,0.065-13.722-0.061c-0.779-0.022-1.82-0.688-2.224-1.364
		c-0.316-0.529-0.078-1.725,0.355-2.276c0.403-0.513,1.39-0.775,2.123-0.788c4.475-0.064,8.948-0.021,13.423-0.037
		c2.038-0.004,2.827-0.795,2.827-2.828c0.006-29.962,0.006-59.924,0.004-89.885c0-0.297-0.027-0.594-0.05-1.099
		c-0.563,0-1.094,0-1.624,0c-6.535,0-13.07,0.003-19.605-0.003c-2.43,0-3.148-0.718-3.152-3.131c-0.005-6.486,0-12.97-0.002-19.455
		c0-0.548,0-1.094,0-1.845c-0.621,0-1.15,0-1.684,0c-23.877,0-47.758,0-71.636,0c-2.642,0-3.3,0.651-3.301,3.276
		c-0.002,3.569,0.008,7.139-0.006,10.708c-0.007,1.756-0.871,2.773-2.285,2.748c-1.344-0.022-2.22-1.035-2.227-2.679
		c-0.021-3.919-0.046-7.842,0.007-11.762c0.051-3.875,2.943-6.798,6.8-6.802c25.389-0.024,50.774-0.024,76.162,0.033
		c0.835,0.003,1.847,0.519,2.473,1.113c2.577,2.454,5.041,5.03,7.74,7.753c0.103-0.603,0.197-0.917,0.198-1.229
		c0.011-3.569,0.022-7.139,0.003-10.708c-0.016-2.206-0.825-3.006-3.013-3.006C84.734,8.964,53.563,8.964,22.396,8.966
		c-2.169,0.002-2.935,0.743-2.935,2.867c-0.003,37.502-0.003,75.004,0,112.506c0,2.121,0.771,2.854,2.937,2.871
		c0.991,0.01,1.985,0.003,3.125,0.003c0-0.731,0-1.321,0-1.909c0-26.49,0-52.983,0-79.477c0-2.434,0.72-3.533,2.296-3.514
		c1.57,0.017,2.228,1.067,2.228,3.562c0.001,29.458,0,58.918,0.001,88.376c0,2.937,0.586,3.524,3.519,3.524
		c4.273,0.003,8.546-0.006,12.816,0.005c1.855,0.002,2.942,0.878,2.904,2.302c-0.042,1.372-1.09,2.208-2.859,2.214
		c-4.625,0.012-9.25,0.028-13.874-0.006c-4.133-0.03-6.975-2.912-7.03-7.055c-0.013-1.1-0.001-2.198-0.001-3.497
		c-1.279,0-2.465,0.02-3.654-0.002c-4.058-0.07-6.926-2.917-6.926-6.978c-0.013-37.754-0.007-75.508-0.011-113.263
		c0-3.76,2.101-5.886,5.446-7.056C52.958,4.44,85.538,4.44,118.118,4.44z M127.228,39.345c-5.286-5.274-10.682-10.658-15.938-15.907
		c0,5.095,0,10.485,0,15.907C116.764,39.345,122.149,39.345,127.228,39.345z"/>
	<path fill-rule="evenodd" clip-rule="evenodd" fill="#490D3D" d="M77.696,158.893c-2.504-0.676-5.091-1.136-7.496-2.063
		c-11.962-4.619-19.264-16.877-17.798-29.645c1.446-12.584,11.309-22.839,23.819-24.757c15.08-2.314,29.412,7.633,32.259,22.386
		c2.935,15.24-6.38,29.771-21.382,33.335c-1.216,0.289-2.45,0.497-3.672,0.744C81.518,158.893,79.607,158.893,77.696,158.893z
		 M56.78,130.492c0.007,13.185,10.717,23.885,23.884,23.872c13.161-0.012,23.884-10.753,23.871-23.91
		c-0.012-13.174-10.741-23.868-23.914-23.845C67.395,106.636,56.769,117.28,56.78,130.492z"/>
	<path fill-rule="evenodd" clip-rule="evenodd" fill="#8A9B18" d="M88.926,70.47c-8.479,0-16.957,0.002-25.434-0.005
		c-0.593,0-1.205,0.015-1.775-0.122c-1.043-0.245-1.578-0.992-1.61-2.07c-0.027-1.078,0.471-1.861,1.497-2.158
		c0.562-0.162,1.177-0.164,1.766-0.164c17.103-0.008,34.208-0.008,51.312-0.005c0.444,0,0.897-0.011,1.335,0.065
		c1.252,0.22,1.955,1.015,1.908,2.287c-0.043,1.191-0.738,1.947-1.937,2.108c-0.538,0.072-1.088,0.06-1.634,0.06
		C105.88,70.471,97.4,70.47,88.926,70.47z"/>
	<path fill-rule="evenodd" clip-rule="evenodd" fill="#F6C911" d="M89.06,79.313c8.475,0,16.954-0.001,25.433,0.002
		c0.545,0,1.1-0.031,1.631,0.065c1.119,0.2,1.91,0.992,1.749,2.061c-0.116,0.791-0.825,1.58-1.447,2.172
		c-0.319,0.3-1.039,0.215-1.576,0.218c-17.203,0.007-34.41,0.007-51.613-0.002c-0.588,0-1.205-0.032-1.751-0.222
		c-1.01-0.354-1.454-1.173-1.368-2.245c0.086-1.078,0.681-1.77,1.726-1.972c0.529-0.101,1.087-0.074,1.632-0.074
		C72,79.312,80.528,79.313,89.06,79.313z"/>
	<path fill-rule="evenodd" clip-rule="evenodd" fill="#490D3D" d="M78.561,92.925c5.154,0,10.307-0.003,15.46,0.002
		c1.926,0.002,2.881,0.761,2.877,2.245c-0.001,1.47-0.991,2.273-2.883,2.273c-10.356,0.007-20.71,0.01-31.068,0
		c-1.836-0.003-2.839-0.878-2.797-2.357c0.044-1.421,0.975-2.158,2.804-2.16C68.155,92.92,73.359,92.925,78.561,92.925z"/>
	<path fill-rule="evenodd" clip-rule="evenodd" fill="#BC1550" d="M110.504,92.927c1.687,0,3.366-0.027,5.047,0.01
		c1.415,0.029,2.344,0.89,2.397,2.133c0.055,1.296-0.891,2.334-2.352,2.359c-3.414,0.051-6.829,0.046-10.243,0.002
		c-1.488-0.021-2.396-0.987-2.373-2.317c0.027-1.34,0.927-2.157,2.479-2.181C107.141,92.906,108.823,92.927,110.504,92.927z"/>
	<path fill-rule="evenodd" clip-rule="evenodd" fill="#BC1550" d="M78.356,138.174c0-5.769,0-11.537,0-17.313
		c0-1.252-0.03-2.51,0.011-3.763c0.056-1.604,1.015-2.598,2.374-2.54c1.296,0.057,2.127,1.021,2.132,2.588
		c0.016,6.633,0.008,13.264,0.008,19.896c0,0.387,0,0.773,0,1.673c1.453-1.458,2.596-2.596,3.737-3.733
		c0.783-0.782,1.537-1.593,2.361-2.33c0.99-0.883,2.241-0.854,3.116-0.007c0.883,0.861,1.008,2.157,0.08,3.11
		c-3.296,3.378-6.632,6.724-10.015,10.016c-0.956,0.936-2.153,0.88-3.113-0.065c-3.294-3.244-6.564-6.512-9.805-9.808
		c-0.987-1.002-0.957-2.355-0.08-3.236c0.886-0.885,2.229-0.926,3.241,0.061c1.896,1.851,3.718,3.773,5.571,5.667
		C78.1,138.317,78.228,138.247,78.356,138.174z"/>
</g>
<g>
	<path fill="#E87F13" d="M43.137,60.031c-1.534-1.663-2.3-4.008-2.3-7.038V32.157c0-3.029,0.766-5.375,2.3-7.038
		c1.532-1.662,3.758-2.494,6.677-2.494c2.918,0,5.144,0.832,6.678,2.494c1.533,1.663,2.3,4.009,2.3,7.038v4.101h-5.763v-4.489
		c0-2.401-1.017-3.602-3.048-3.602c-2.032,0-3.048,1.201-3.048,3.602v21.667c0,2.365,1.016,3.547,3.048,3.547
		c2.031,0,3.048-1.182,3.048-3.547v-5.929h5.763v5.486c0,3.03-0.767,5.375-2.3,7.038c-1.534,1.663-3.76,2.494-6.678,2.494
		C46.895,62.525,44.669,61.694,43.137,60.031z"/>
	<path fill="#E87F13" d="M60.842,23.18h6.151l3.99,30.091h0.111l3.99-30.091h5.597l-5.874,38.791h-8.091L60.842,23.18z"/>
</g>
<g>
</g>
<g>
</g>
<g>
</g>
<g>
</g>
<g>
</g>
<g>
</g>
</svg>
