<?xml version="1.0" encoding="utf-8"?>
<!-- Generator: Adobe Illustrator 16.0.3, SVG Export Plug-In . SVG Version: 6.00 Build 0)  -->
<!DOCTYPE svg PUBLIC "-//W3C//DTD SVG 1.1//EN" "http://www.w3.org/Graphics/SVG/1.1/DTD/svg11.dtd">
<svg version="1.1" id="Capa_1" xmlns="http://www.w3.org/2000/svg" xmlns:xlink="http://www.w3.org/1999/xlink" x="0px" y="0px"
	 width="195px" height="82px" viewBox="0 0 195 82" enable-background="new 0 0 195 82" xml:space="preserve">
<g>
	<path fill-rule="evenodd" clip-rule="evenodd" fill="#490E3D" d="M94.234,77.254c-10.833,0-21.666,0.003-32.499-0.001
		C53.892,77.25,49.5,72.865,49.5,65.049c0-14.501-0.003-29.003,0-43.506c0.002-7.332,4.511-11.844,11.887-11.848
		c21.899-0.012,43.798-0.012,65.696,0c7.381,0.003,11.884,4.51,11.887,11.848c0.003,14.619,0.003,29.237,0,43.856
		c-0.003,7.334-4.512,11.84-11.887,11.851C116.133,77.265,105.185,77.254,94.234,77.254z M64.237,31.047c0,14.386,0,28.39,0,42.429
		c20.051,0,39.986,0,59.908,0c0-14.13,0-28.149,0-42.349c-0.557,0.425-0.93,0.697-1.29,0.987
		c-8.931,7.191-17.873,14.368-26.774,21.594c-1.302,1.058-2.318,1.165-3.669,0.059c-5.941-4.871-11.945-9.664-17.928-14.483
		C71.145,36.595,67.803,33.913,64.237,31.047z M127.916,73.445c4.214,0.154,7.396-2.854,7.42-7.147
		c0.078-15.196,0.059-30.394,0.01-45.59c-0.01-3.38-1.938-5.885-4.869-6.976c-1.172-0.436-2.037-0.258-3.018,0.54
		c-10.384,8.449-20.804,16.855-31.214,25.274c-1.888,1.526-2.17,1.525-4.037,0.015c-10.41-8.418-20.83-16.825-31.219-25.269
		c-0.963-0.782-1.824-1.007-3.01-0.56c-3.14,1.182-4.875,3.804-4.878,7.689c-0.01,14.673-0.009,29.346,0.008,44.018
		c0.001,0.925,0.076,1.873,0.286,2.77c0.747,3.187,3.801,5.465,7.065,5.181c0-0.659,0-1.344,0-2.028
		c0-14.207-0.001-28.415,0.003-42.622c0-0.639-0.033-1.295,0.098-1.912c0.286-1.343,1.487-1.869,2.664-1.18
		c0.547,0.321,1.029,0.758,1.527,1.16c9.203,7.412,18.402,14.828,27.604,22.242c0.62,0.497,1.253,0.98,1.884,1.473
		c8.021-6.461,15.907-12.815,23.794-19.167c2.266-1.825,4.507-3.686,6.819-5.452c1.506-1.151,2.881-0.494,3.044,1.368
		c0.045,0.52,0.019,1.047,0.019,1.571c0.001,14.149,0.001,28.299,0.001,42.447C127.916,71.978,127.916,72.669,127.916,73.445z
		 M94.214,36.542c9.469-7.658,18.844-15.239,28.515-23.059c-19.157,0-37.887,0-57.037,0C75.352,21.292,84.698,28.847,94.214,36.542z
		"/>
	<path fill-rule="evenodd" clip-rule="evenodd" fill="#BC1550" d="M127.916,73.445c0-0.776,0-1.468,0-2.158
		c0-14.148,0-28.298-0.001-42.447c0-0.523,0.026-1.051-0.019-1.571c-0.163-1.862-1.538-2.519-3.044-1.368
		c-2.313,1.766-4.554,3.627-6.819,5.452c-7.887,6.352-15.773,12.706-23.794,19.167c-0.631-0.492-1.264-0.976-1.884-1.473
		c-9.202-7.414-18.401-14.83-27.604-22.242c-0.498-0.401-0.979-0.838-1.527-1.16c-1.176-0.688-2.377-0.163-2.664,1.18
		c-0.131,0.617-0.098,1.273-0.098,1.912c-0.005,14.207-0.003,28.415-0.003,42.622c0,0.685,0,1.369,0,2.028
		c-3.265,0.284-6.319-1.994-7.065-5.181c-0.21-0.896-0.285-1.845-0.286-2.77C53.091,50.767,53.09,36.094,53.1,21.421
		c0.003-3.885,1.739-6.507,4.878-7.689c1.186-0.447,2.047-0.222,3.01,0.56c10.389,8.444,20.809,16.851,31.219,25.269
		c1.867,1.51,2.149,1.511,4.037-0.015c10.411-8.419,20.831-16.825,31.214-25.274c0.98-0.797,1.846-0.976,3.018-0.54
		c2.932,1.091,4.859,3.595,4.869,6.976c0.049,15.196,0.068,30.394-0.01,45.59C135.313,70.591,132.13,73.6,127.916,73.445z"/>
	<path fill-rule="evenodd" clip-rule="evenodd" fill="#490E3D" d="M99.438,57.004c0.52-0.667,0.846-1.287,1.346-1.691
		c4.06-3.288,8.155-6.534,12.235-9.8c0.978-0.782,2.023-1.108,2.894,0.003c0.849,1.087,0.359,2.043-0.637,2.835
		c-4.091,3.251-8.145,6.551-12.285,9.736c-0.569,0.438-1.579,0.533-2.328,0.423C100.236,58.445,99.924,57.636,99.438,57.004z"/>
	<path fill-rule="evenodd" clip-rule="evenodd" fill="#E77F17" d="M118.693,44.901c-0.454-0.677-1.139-1.301-1.304-2.041
		c-0.22-0.993,1.297-2.268,2.413-2.224c1.103,0.042,1.697,0.646,1.716,1.748C121.538,43.505,120.273,44.654,118.693,44.901z"/>
</g>
</svg>
