<?xml version="1.0" encoding="utf-8"?>
<!-- Generator: Adobe Illustrator 16.0.3, SVG Export Plug-In . SVG Version: 6.00 Build 0)  -->
<!DOCTYPE svg PUBLIC "-//W3C//DTD SVG 1.1//EN" "http://www.w3.org/Graphics/SVG/1.1/DTD/svg11.dtd">
<svg version="1.1" id="Capa_1" xmlns="http://www.w3.org/2000/svg" xmlns:xlink="http://www.w3.org/1999/xlink" x="0px" y="0px"
	 width="195px" height="82px" viewBox="0 0 195 82" enable-background="new 0 0 195 82" xml:space="preserve">
<g>
	<path fill-rule="evenodd" clip-rule="evenodd" fill="#490E3D" d="M98.438,75.506c-4.904,0-9.809,0.008-14.713-0.011
		c-0.641-0.003-1.28-0.146-1.922-0.219c-8.938-1.002-15.629-7.588-15.946-16.636c-0.371-10.609-0.362-21.251-0.011-31.861
		c0.3-9.018,7.005-15.758,15.95-16.588c4.658-0.432,9.363-0.518,14.048-0.503c6.362,0.019,12.751-0.027,19.081,0.515
		c9.221,0.789,15.825,7.611,16.117,16.837c0.333,10.44,0.335,20.908,0.013,31.35c-0.285,9.225-6.946,16.013-16.117,16.841
		c-5.476,0.495-10.994,0.5-16.493,0.725C98.442,75.805,98.44,75.655,98.438,75.506z M83.895,15.887
		c-2.738,0.063-5.356,0.795-7.599,2.494c-2.945,2.231-4.426,5.341-4.53,8.902c-0.242,8.295-0.282,16.596-0.302,24.895
		c-0.007,2.483,0.131,5,0.537,7.445c0.907,5.456,4.726,9.009,10.267,9.657c2.558,0.299,5.146,0.461,7.72,0.46
		c7.44-0.001,14.883-0.064,22.32-0.225c1.692-0.036,3.436-0.37,5.048-0.896c4.957-1.618,7.485-5.378,7.75-10.352
		c0.385-7.252,0.359-14.527,0.413-21.793c0.021-3.006-0.077-6.025-0.344-9.02c-0.628-7.043-5.064-11.318-12.13-11.565
		c-4.853-0.169-9.716-0.032-14.574-0.032C93.611,15.855,88.75,15.775,83.895,15.887z"/>
	<path fill-rule="evenodd" clip-rule="evenodd" fill="#BC1550" d="M98.398,25.716c9.298-0.033,16.951,7.558,16.987,16.851
		c0.038,9.484-7.545,17.134-16.971,17.12c-9.325-0.014-16.902-7.588-16.919-16.911C81.479,33.356,89.015,25.75,98.398,25.716z
		 M98.419,53.757c6.089,0.011,11.039-4.974,11.023-11.099c-0.017-6.061-4.939-10.996-10.984-11.008
		c-6.095-0.011-11.038,4.966-11.022,11.098C87.452,48.807,92.381,53.747,98.419,53.757z"/>
	<path fill-rule="evenodd" clip-rule="evenodd" fill="#E77F17" d="M120.025,24.424c-0.012-2.157-1.781-3.926-3.927-3.929
		c-2.216-0.002-3.959,1.8-3.92,4.051c0.038,2.173,1.822,3.903,3.978,3.858C118.323,28.359,120.039,26.595,120.025,24.424z"/>
</g>
</svg>
