<?xml version="1.0" encoding="utf-8"?>
<!-- Generator: Adobe Illustrator 16.0.3, SVG Export Plug-In . SVG Version: 6.00 Build 0)  -->
<!DOCTYPE svg PUBLIC "-//W3C//DTD SVG 1.1//EN" "http://www.w3.org/Graphics/SVG/1.1/DTD/svg11.dtd">
<svg version="1.1" id="Capa_1" xmlns="http://www.w3.org/2000/svg" xmlns:xlink="http://www.w3.org/1999/xlink" x="0px" y="0px"
	 width="195px" height="82px" viewBox="0 0 195 82" enable-background="new 0 0 195 82" xml:space="preserve">
<g>
	<path fill-rule="evenodd" clip-rule="evenodd" fill="#490E3D" d="M115.924,9.686c0.522,0.406,1.097,0.762,1.562,1.226
		c3.866,3.837,7.704,7.702,11.568,11.539c0.643,0.639,0.959,1.334,0.946,2.25c-0.035,2.603-0.013,5.206-0.013,7.856
		c-1.376,0-2.73,0-4.155,0c0-2.039,0-4.086,0-6.201c-0.302,0-0.533,0-0.766,0c-2.43,0-4.86,0.007-7.291-0.001
		c-2.692-0.01-4.443-1.752-4.455-4.438c-0.01-2.431-0.002-4.861-0.002-7.291c0-0.234,0-0.469,0-0.773c-0.285,0-0.516,0-0.749,0
		c-10.003,0-20.008,0-30.01,0c-1.83,0-2.583,0.744-2.583,2.551c0,17.75,0,35.501,0,53.251c0,1.78,0.757,2.545,2.521,2.545
		c4.449,0.002,8.896,0.002,13.346,0.002c0.236,0,0.473,0,0.804,0c0,1.409,0,2.789,0,4.166c-5.079,0-10.159,0-15.238,0
		c-0.076-0.032-0.152-0.082-0.233-0.093c-1.61-0.227-2.908-0.991-3.951-2.232c-0.804-0.955-1.157-2.09-1.415-3.274
		c0-18.494,0-36.988,0-55.481c0.035-0.101,0.088-0.198,0.104-0.302c0.236-1.558,0.981-2.821,2.174-3.844
		c0.964-0.827,2.117-1.195,3.322-1.455C92.913,9.686,104.42,9.686,115.924,9.686z"/>
</g>
<g>
	<path fill-rule="evenodd" clip-rule="evenodd" fill="#F5C914" d="M109.188,65.613c-3.108,0-6.079,0-9.106,0
		c0-9.868,0-19.697,0-29.594c2.87,0,5.744,0,8.739,0c0,1.288,0,2.564,0,3.842c0.057,0.012,0.114,0.021,0.17,0.032
		c0.229-0.319,0.444-0.649,0.689-0.958c1.791-2.269,4.188-3.482,7.021-3.641c1.596-0.088,3.257,0.041,4.814,0.394
		c3.987,0.902,5.963,3.757,6.676,7.572c0.317,1.697,0.493,3.443,0.514,5.169c0.067,5.502,0.031,11.003,0.033,16.504
		c0,0.198,0,0.397,0,0.657c-3.068,0-6.088,0-9.209,0c0-0.317,0-0.626,0-0.935c-0.001-4.863,0.017-9.728-0.02-14.592
		c-0.008-1.063-0.124-2.142-0.341-3.183c-0.445-2.139-1.68-3.266-3.652-3.497c-2.572-0.301-4.556,0.54-5.42,2.5
		c-0.433,0.984-0.757,2.103-0.779,3.167c-0.109,5.121-0.097,10.247-0.13,15.369C109.188,64.793,109.188,65.166,109.188,65.613z"/>
	<path fill-rule="evenodd" clip-rule="evenodd" fill="#BC1550" d="M94.124,65.623c-3.032,0-6.007,0-9.057,0
		c0-9.859,0-19.704,0-29.608c2.999,0,5.992,0,9.057,0C94.124,45.849,94.124,55.694,94.124,65.623z"/>
	<path fill-rule="evenodd" clip-rule="evenodd" fill="#E77F17" d="M94.917,26.555c-0.017,2.956-2.457,5.396-5.354,5.354
		c-2.914-0.041-5.32-2.515-5.295-5.441c0.025-2.891,2.443-5.287,5.338-5.29C92.558,21.175,94.933,23.581,94.917,26.555z"/>
</g>
</svg>
