<?xml version="1.0" encoding="utf-8"?>
<!-- Generator: Adobe Illustrator 16.0.3, SVG Export Plug-In . SVG Version: 6.00 Build 0)  -->
<!DOCTYPE svg PUBLIC "-//W3C//DTD SVG 1.1//EN" "http://www.w3.org/Graphics/SVG/1.1/DTD/svg11.dtd">
<svg version="1.1" id="Capa_1" xmlns="http://www.w3.org/2000/svg" xmlns:xlink="http://www.w3.org/1999/xlink" x="0px" y="0px"
	 width="195px" height="82px" viewBox="0 0 195 82" enable-background="new 0 0 195 82" xml:space="preserve">
<g>
	<rect x="80.667" y="41" display="none" fill="#E77F17" width="51.5" height="31"/>
	<path fill="#490E3D" d="M106.535,76.673c-5.733-0.178-11.468-0.329-17.199-0.55c-1.682-0.063-3.373-0.22-5.027-0.506
		c-3.15-0.543-5.337-2.845-5.985-5.99c-0.635-3.078-0.839-6.195-0.899-9.317c-0.091-4.792-0.163-9.59,0.403-14.357
		c0.191-1.62,0.459-3.282,1.049-4.784c1.196-3.03,3.675-4.343,6.855-4.612c11.23-0.954,22.48-0.756,33.727-0.501
		c2.718,0.063,5.434,0.301,8.144,0.537c4.147,0.359,6.637,2.599,7.296,6.745c0.413,2.614,0.668,5.267,0.767,7.91
		c0.192,5.104,0.207,10.215-0.351,15.303c-0.195,1.757-0.395,3.546-1.227,5.153c-1.256,2.419-3.252,3.819-5.975,4.034
		c-3.587,0.276-7.179,0.554-10.772,0.665c-3.596,0.113-7.198,0.025-10.8,0.025C106.537,76.508,106.536,76.592,106.535,76.673z
		 M111.289,66.547c0.598,0.503,1.056,0.978,1.598,1.33c2.004,1.304,4.395,0.737,4.925-1.89c0.105-0.527,0.203-1.066,0.211-1.601
		c0.036-3.217,0.061-6.438,0.055-9.655c-0.003-1.077-0.052-2.163-0.188-3.231c-0.283-2.239-1.929-3.419-3.937-2.75
		c-0.756,0.25-1.402,0.844-2.088,1.299c-0.185,0.124-0.326,0.314-0.621,0.609c0-2.967,0-5.724,0-8.491c-1.186,0-2.301,0-3.454,0
		c0,8.711,0,17.386,0,26.081c1.176,0,2.308,0,3.5,0C111.289,67.674,111.289,67.149,111.289,66.547z M131.308,59.202
		c0-1.944,0.06-3.807-0.029-5.665c-0.036-0.785-0.26-1.618-0.614-2.321c-1.131-2.248-3.659-3.18-6.238-2.397
		c-2.154,0.653-3.49,2.521-3.53,5.118c-0.047,3.058-0.08,6.118,0.011,9.179c0.084,2.77,1.487,5.172,5.005,5.433
		c2.006,0.149,3.881-0.806,4.842-2.548c0.77-1.397,0.624-2.897,0.648-4.402c-1.235,0-2.407,0-3.648,0
		c0,0.708,0.037,1.359-0.007,2.007c-0.078,1.073-0.646,1.678-1.543,1.725c-0.895,0.051-1.632-0.502-1.703-1.547
		c-0.104-1.49-0.025-2.997-0.025-4.58C126.747,59.202,129.05,59.202,131.308,59.202z M101.16,48.844c0,0.273,0,0.515,0,0.757
		c0,4.367-0.03,8.733,0.026,13.1c0.011,0.876-0.314,1.449-0.907,1.975c-0.466,0.41-0.981,0.813-1.627,0.586
		c-0.674-0.237-0.563-0.91-0.565-1.455c-0.016-4.728-0.017-9.453-0.022-14.18c0-0.259,0-0.52,0-0.776c-1.223,0-2.338,0-3.49,0
		c-0.012,0.19-0.027,0.345-0.027,0.498c0,5.019-0.009,10.038,0.014,15.057c0.004,0.805,0.113,1.617,0.249,2.41
		c0.16,0.938,0.771,1.485,1.71,1.663c1.574,0.299,2.717-0.521,3.808-1.465c0.258-0.224,0.487-0.479,0.859-0.848
		c0,0.835,0,1.453,0,2.083c1.19,0,2.322,0,3.451,0c0-6.496,0-12.944,0-19.402C103.469,48.844,102.352,48.844,101.16,48.844z
		 M93.985,45.85c0-1.282,0-2.464,0-3.673c-4.098,0-8.153,0-12.229,0c0,1.229,0,2.41,0,3.696c1.386,0,2.74,0,4.144,0
		c0,7.519,0,14.936,0,22.38c1.324,0,2.591,0,3.929,0c0-7.479,0-14.911,0-22.403C91.24,45.85,92.581,45.85,93.985,45.85z"/>
	<path fill="#BC144F" d="M94.134,33.741c-1.343,0-2.594,0-3.934,0c0-0.27,0-0.509,0-0.749c0-2.455-0.077-4.91,0.023-7.36
		c0.092-2.227-0.354-4.336-1.034-6.414c-1.194-3.648-2.431-7.285-3.648-10.926c-0.092-0.274-0.173-0.551-0.272-0.869
		c1.392,0,2.733,0,4.116,0c0.916,3.377,1.833,6.753,2.749,10.13c0.036,0.003,0.073,0.007,0.109,0.011
		c0.358-1.357,0.718-2.713,1.072-4.069c0.489-1.868,0.982-3.736,1.454-5.608c0.081-0.324,0.168-0.512,0.56-0.503
		c1.147,0.025,2.293,0.009,3.511,0.009c-0.057,0.246-0.094,0.453-0.155,0.654c-1.442,4.771-2.896,9.541-4.326,14.316
		c-0.139,0.464-0.211,0.967-0.213,1.452c-0.02,3.038-0.011,6.078-0.011,9.116C94.134,33.176,94.134,33.419,94.134,33.741z"/>
	<path fill="#BC144F" d="M112.381,14.162c1.21,0,2.328,0,3.537,0c0,0.287,0,0.547,0,0.809c0,4.386-0.002,8.773,0.002,13.16
		c0.002,0.563,0.02,1.124,0.062,1.685c0.067,0.88,0.563,1.195,1.381,0.904c0.981-0.351,1.731-1.416,1.731-2.464
		c0-4.409,0-8.819,0-13.228c0-0.267,0-0.533,0-0.846c1.182,0,2.318,0,3.498,0c0,6.509,0,13.017,0,19.558c-1.151,0-2.266,0-3.474,0
		c0-0.638,0-1.271,0-1.905c-0.053-0.024-0.104-0.048-0.156-0.073c-0.245,0.244-0.478,0.501-0.736,0.729
		c-1.013,0.891-2.081,1.65-3.539,1.528c-1.113-0.095-1.868-0.705-2.038-1.797c-0.139-0.885-0.25-1.784-0.254-2.679
		c-0.023-4.949-0.014-9.899-0.014-14.848C112.381,14.539,112.381,14.384,112.381,14.162z"/>
	<path fill="#BC144F" d="M109.504,24.086c-0.079,1.81-0.058,3.684-0.271,5.532c-0.227,1.991-1.259,3.546-3.266,4.139
		c-1.979,0.584-3.887,0.398-5.446-1.155c-1.027-1.024-1.476-2.34-1.503-3.73c-0.065-3.26-0.093-6.523,0.002-9.782
		c0.075-2.572,1.493-4.455,3.613-4.977c3.277-0.808,6.19,0.739,6.614,4.331C109.466,20.288,109.426,22.166,109.504,24.086z
		 M102.522,23.948c-0.011,0-0.021,0-0.034,0c0,1.304-0.027,2.607,0.014,3.91c0.021,0.666,0.104,1.343,0.277,1.983
		c0.186,0.684,0.745,0.994,1.447,0.981c0.677-0.012,1.184-0.346,1.377-0.99c0.159-0.531,0.266-1.099,0.27-1.652
		c0.026-2.808,0.032-5.617-0.003-8.426c-0.008-0.615-0.15-1.248-0.347-1.833c-0.187-0.554-0.678-0.801-1.278-0.817
		c-0.621-0.017-1.13,0.203-1.376,0.771c-0.183,0.423-0.317,0.9-0.329,1.356C102.499,20.802,102.522,22.375,102.522,23.948z"/>
	<path fill="#490E3D" d="M111.281,58.584c0-1.799,0-3.594,0.001-5.392c0.001-0.677,0.417-1.137,1.219-1.351
		c0.761-0.203,1.389-0.011,1.662,0.633c0.207,0.483,0.347,1.034,0.353,1.556c0.033,3.011,0.018,6.021,0.016,9.031
		c0,0.221-0.032,0.446-0.067,0.669c-0.105,0.665-0.295,1.298-1.021,1.528c-0.749,0.235-1.373-0.095-1.899-0.581
		c-0.164-0.152-0.248-0.464-0.25-0.704C111.271,62.177,111.281,60.38,111.281,58.584z"/>
	<path fill="#490E3D" d="M127.937,56.229c-1.262,0-2.356,0-3.531,0c-0.037-1.171-0.172-2.33,0.229-3.449
		c0.268-0.744,0.841-1.056,1.642-0.994c0.757,0.058,1.299,0.491,1.431,1.368C127.859,54.144,127.861,55.152,127.937,56.229z"/>
</g>
</svg>
